HIERARCHY
ROOT root
{
	OFFSET	0	13.1	24.9
	CHANNELS 6  Xposition Yposition Zposition Xrotation Yrotation Zrotation
	JOINT spine_1
	{
		OFFSET	0	9.99999	0
		CHANNELS 3  Xrotation Yrotation Zrotation
		JOINT spine_2
		{
			OFFSET	0	112	-10
			CHANNELS 3  Xrotation Yrotation Zrotation
			JOINT spine_3
			{
				OFFSET	0	206.5	19.3
				CHANNELS 3  Xrotation Yrotation Zrotation
				JOINT spine_4
				{
					OFFSET	0	110.4	14.6
					CHANNELS 3  Xrotation Yrotation Zrotation
					JOINT neck_1
					{
						OFFSET	0	71.8	-50.3
						CHANNELS 3  Xrotation Yrotation Zrotation
						JOINT neck_2
						{
							OFFSET	0	86.2	-25.8
							CHANNELS 3  Xrotation Yrotation Zrotation
							JOINT head_ee
							{
								OFFSET	0	179.8	-8.7
								CHANNELS 3  Xrotation Yrotation Zrotation
								End Site
								{
									OFFSET	1	0	0
								}
							}
						}
					}
					JOINT left_clavicle
					{
						OFFSET	-43.2	22.4	-70.8
						CHANNELS 3  Xrotation Yrotation Zrotation
						JOINT left_shoulder
						{
							OFFSET	-93.9	-5.79999	48.7
							CHANNELS 3  Xrotation Yrotation Zrotation
							JOINT left_elbow
							{
								OFFSET	-291.4	-30.8	15.2
								CHANNELS 3  Xrotation Yrotation Zrotation
								JOINT left_lowarm_twist
								{
									OFFSET	-110.7	-3.89999	13.6
									CHANNELS 3  Xrotation Yrotation Zrotation
									JOINT left_hand
									{
										OFFSET	-110.7	-3.89999	13.6
										CHANNELS 3  Xrotation Yrotation Zrotation
										JOINT left_ee
										{
											OFFSET	-80.8	-5.10001	12.1
											CHANNELS 3  Xrotation Yrotation Zrotation
											End Site
											{
												OFFSET	1	0	0
											}
										}
									}
								}
							}
						}
					}
					JOINT right_clavicle
					{
						OFFSET	43.2	22.4	-70.8
						CHANNELS 3  Xrotation Yrotation Zrotation
						JOINT right_shoulder
						{
							OFFSET	93.9	-5.79999	48.7
							CHANNELS 3  Xrotation Yrotation Zrotation
							JOINT right_elbow
							{
								OFFSET	291.4	-30.8	15.2
								CHANNELS 3  Xrotation Yrotation Zrotation
								JOINT right_lowarm_twist
								{
									OFFSET	110.7	-3.89999	13.6
									CHANNELS 3  Xrotation Yrotation Zrotation
									JOINT right_hand
									{
										OFFSET	110.7	-3.89999	13.6
										CHANNELS 3  Xrotation Yrotation Zrotation
										JOINT right_ee
										{
											OFFSET	80.8	-5.10001	12.1
											CHANNELS 3  Xrotation Yrotation Zrotation
											End Site
											{
												OFFSET	1	0	0
											}
										}
									}
								}
							}
						}
					}
				}
			}
		}
	}
	JOINT left_hip
	{
		OFFSET	-82.8	-127.5	0.300001
		CHANNELS 3  Xrotation Yrotation Zrotation
		JOINT left_knee
		{
			OFFSET	-28.2	-396.7	2.2
			CHANNELS 3  Xrotation Yrotation Zrotation
			JOINT left_ankle
			{
				OFFSET	-11.7	-411.3	35.4
				CHANNELS 3  Xrotation Yrotation Zrotation
				JOINT left_toes
				{
					OFFSET	0	-60	-88.6
					CHANNELS 3  Xrotation Yrotation Zrotation
					JOINT left_foot_ee
					{
						OFFSET	-22.5	-16.5	-42.2
						CHANNELS 3  Xrotation Yrotation Zrotation
						End Site
						{
							OFFSET	1	0	0
						}
					}
				}
			}
		}
	}
	JOINT right_hip
	{
		OFFSET	82.8	-127.5	0.300001
		CHANNELS 3  Xrotation Yrotation Zrotation
		JOINT right_knee
		{
			OFFSET	28.2	-396.7	2.2
			CHANNELS 3  Xrotation Yrotation Zrotation
			JOINT right_ankle
			{
				OFFSET	11.7	-411.3	35.4
				CHANNELS 3  Xrotation Yrotation Zrotation
				JOINT right_toes
				{
					OFFSET	0	-60	-88.6
					CHANNELS 3  Xrotation Yrotation Zrotation
					JOINT right_foot_ee
					{
						OFFSET	22.5	-16.5	-42.2
						CHANNELS 3  Xrotation Yrotation Zrotation
						End Site
						{
							OFFSET	1	0	0
						}
					}
				}
			}
		}
	}
}
MOTION
Frames: 10
Frame Time: 0.02
1372.05 701.618 -1475.22 -7.88593318043 62.401559521 7.60982568111 0.786322 -0.441935 -0.200937 0.786242 -0.428253 -0.228651 0.787973 -0.374913 -0.30842 0.788085 -0.418917 -0.245338 -6.20741 19.3262 4.92281 -6.08055 32.3039 8.65806 -0.0 0.0 -0.0 7.89741 16.706 14.4718 -1.80238 -19.6932 55.3472 2.57684 -51.9163 1.25464 -63.7188 -5.74853 5.20182 0.505807 10.3723 7.54526 -0.0 0.0 -0.0 11.8096 4.82372 -23.7368 -19.9343 2.70761 -64.5271 0.322755 9.08395 -0.0256394 -40.6556 3.02115 -4.10734 -6.74778 -29.059 26.0046 0.0 0.0 0.0 -19.9409 23.3 8.12887 -1.41392 0.0556306 0.209849 34.6903 -2.90959 -4.41663 -34.6767 0.0 0.0 -0.0 0.0 -0.0 33.5936 8.64312 -10.109 2.05177 0.0899124 0.301984 -22.0569 -2.8178 -3.33488 11.7411 -0.0 -0.0 0.0 0.0 0.0 
1344.93265787 694.009 -1484.091339 -6.79926990207 62.8714475314 6.123413225 0.796071 -0.256296 -0.0950157 0.796041 -0.249731 -0.111132 0.79653 -0.223015 -0.158051 0.796579 -0.245177 -0.120846 -5.56555 19.4452 4.95934 -5.36434 32.337 8.53837 -0.0 0.0 -0.0 6.97 17.3833 12.9103 -3.59325 -21.4259 57.1177 2.4177 -50.1318 1.13091 -62.0624 -5.54031 5.16074 0.454121 9.04049 6.69054 -0.0 0.0 -0.0 11.4431 3.07402 -22.8582 -20.1266 2.94514 -64.8963 0.39406 11.0458 -0.0381027 -41.252 3.08528 -4.14912 -6.36723 -29.2186 23.5429 0.0 0.0 0.0 -21.7964 23.016 8.32357 -1.71888 0.0669484 0.255283 35.7603 -4.39082 -4.53839 -33.952 0.0 0.0 -0.0 0.0 -0.0 32.2401 8.73615 -10.3059 0.769706 0.0324597 0.113654 -22.7799 1.49957 -3.48103 8.00798 -0.0 -0.0 0.0 0.0 0.0 
1345.04965158 694.009 -1484.44128437 -6.6327767279 62.1355494026 5.93572169798 0.796071 -0.256296 -0.0950157 0.796041 -0.249731 -0.111132 0.79653 -0.223015 -0.158051 0.796579 -0.245177 -0.120846 -5.56555 19.4452 4.95934 -5.36434 32.337 8.53837 -0.0 0.0 -0.0 6.97 17.3833 12.9103 -3.59325 -21.4259 57.1177 2.4177 -50.1318 1.13091 -62.0624 -5.54031 5.16074 0.454121 9.04049 6.69054 -0.0 0.0 -0.0 11.4431 3.07402 -22.8582 -20.1266 2.94514 -64.8963 0.39406 11.0458 -0.0381027 -41.252 3.08528 -4.14912 -6.36723 -29.2186 23.5429 0.0 0.0 0.0 -21.7964 23.016 8.32357 -1.71888 0.0669484 0.255283 35.7603 -4.39082 -4.53839 -33.952 0.0 0.0 -0.0 0.0 -0.0 32.2401 8.73615 -10.3059 0.769706 0.0324597 0.113654 -22.7799 1.49957 -3.48103 8.00798 -0.0 -0.0 0.0 0.0 0.0 
1321.59873394 695.055 -1491.15786539 -6.6354439893 63.5868935193 5.67677850335 0.834998 -0.199241 -0.0715861 0.83498 -0.194282 -0.0841194 0.835268 -0.174039 -0.120549 0.835298 -0.190893 -0.0915501 -5.76875 18.9681 4.47972 -5.6048 31.8488 8.02759 -0.0 0.0 -0.0 6.79522 17.4018 12.6289 -6.70356 -22.4974 57.6446 2.32178 -48.9874 1.0579 -61.6217 -5.48509 5.1488 0.581803 8.24662 7.20961 -0.0 0.0 -0.0 11.6256 3.47429 -23.2739 -19.8856 2.81658 -64.8521 0.435584 12.1766 -0.0464606 -41.7551 3.13972 -4.18384 -6.36301 -28.9428 23.7611 0.0 0.0 0.0 -23.2155 22.5693 8.48229 -1.93923 0.0749754 0.288147 33.4308 -3.95432 -4.3048 -34.3258 0.0 0.0 -0.0 0.0 -0.0 30.8064 8.61113 -9.93413 -0.182569 -0.00747468 -0.02702 -19.2812 0.0851395 -2.93236 8.53572 -0.0 -0.0 0.0 0.0 0.0 
1273.0503619 697.519 -1497.09007443 -6.80291169492 65.5407879965 5.45890922302 0.983836 0.214832 -0.275499 0.983848 0.231927 -0.26127 0.98277 0.278075 -0.211487 0.982788 0.241185 -0.25275 -6.17445 17.8002 2.64198 -6.08535 31.0974 6.08228 -0.0 0.0 -0.0 6.70333 19.6059 12.3305 -11.7499 -23.49 58.9579 1.87413 -42.8689 0.735818 -60.0059 -5.28349 5.10136 0.264374 7.07635 4.67269 -0.0 0.0 -0.0 11.637 3.37854 -23.294 -18.4267 2.5324 -64.5627 0.449198 12.5452 -0.0493748 -42.5958 3.23136 -4.2408 -6.09452 -29.0672 22.0477 0.0 0.0 0.0 -23.0652 22.6361 8.19078 -9.89255 0.2792 1.49064 33.8414 -5.83367 -4.37235 -32.8523 0.0 0.0 -0.0 0.0 -0.0 28.0494 9.05256 -9.26938 -2.35782 -0.0898748 -0.35066 -10.4994 3.17021 -1.60054 8.00288 -0.0 -0.0 0.0 0.0 0.0 
1273.34911113 697.519 -1498.40109223 -6.61116007155 64.7861036757 5.24761954837 0.983836 0.214832 -0.275499 0.983848 0.231927 -0.26127 0.98277 0.278075 -0.211487 0.982788 0.241185 -0.25275 -6.17445 17.8002 2.64198 -6.08535 31.0974 6.08228 -0.0 0.0 -0.0 6.70333 19.6059 12.3305 -11.7499 -23.49 58.9579 1.87413 -42.8689 0.735818 -60.0059 -5.28349 5.10136 0.264374 7.07635 4.67269 -0.0 0.0 -0.0 11.637 3.37854 -23.294 -18.4267 2.5324 -64.5627 0.449198 12.5452 -0.0493748 -42.5958 3.23136 -4.2408 -6.09452 -29.0672 22.0477 0.0 0.0 0.0 -23.0652 22.6361 8.19078 -9.89255 0.2792 1.49064 33.8414 -5.83367 -4.37235 -32.8523 0.0 0.0 -0.0 0.0 -0.0 28.0494 9.05256 -9.26938 -2.35782 -0.0898748 -0.35066 -10.4994 3.17021 -1.60054 8.00288 -0.0 -0.0 0.0 0.0 0.0 
1224.03223949 701.772 -1503.14568307 -4.19757786963 66.8153617155 2.91768931799 0.955949 0.332285 -0.176028 0.955901 0.342813 -0.154527 0.954946 0.366266 -0.0851374 0.955105 0.348223 -0.141914 -6.32939 18.0651 2.60481 -6.25536 31.6506 6.14164 -0.0 0.0 -0.0 5.06317 22.6356 9.73266 -14.0803 -24.2906 63.2898 1.46168 -35.9051 0.473615 -59.2702 -5.19213 5.07788 0.123106 6.01906 3.31901 -0.0 0.0 -0.0 12.1105 4.04829 -24.3645 -14.5158 0.344645 -65.6263 0.326904 9.19874 -0.0262985 -45.1666 3.51662 -4.40655 -5.77683 -29.091 20.1617 0.0 0.0 0.0 -19.9821 19.2029 5.38879 -22.1876 0.26324 3.37344 27.2851 -7.96659 -3.70669 -32.1554 0.0 0.0 -0.0 0.0 -0.0 25.1973 8.94323 -9.33824 -7.61419 -0.2378 -1.1435 -0.910047 2.52141 -0.135946 9.9584 -0.0 -0.0 0.0 0.0 0.0 
1224.59800206 701.772 -1505.9935195 -4.01765500068 65.7137595844 2.72115030295 0.955949 0.332285 -0.176028 0.955901 0.342813 -0.154527 0.954946 0.366266 -0.0851374 0.955105 0.348223 -0.141914 -6.32939 18.0651 2.60481 -6.25536 31.6506 6.14164 -0.0 0.0 -0.0 5.06317 22.6356 9.73266 -14.0803 -24.2906 63.2898 1.46168 -35.9051 0.473615 -59.2702 -5.19213 5.07788 0.123106 6.01906 3.31901 -0.0 0.0 -0.0 12.1105 4.04829 -24.3645 -14.5158 0.344645 -65.6263 0.326904 9.19874 -0.0262985 -45.1666 3.51662 -4.40655 -5.77683 -29.091 20.1617 0.0 0.0 0.0 -19.9821 19.2029 5.38879 -22.1876 0.26324 3.37344 27.2851 -7.96659 -3.70669 -32.1554 0.0 0.0 -0.0 0.0 -0.0 25.1973 8.94323 -9.33824 -7.61419 -0.2378 -1.1435 -0.910047 2.52141 -0.135946 9.9584 -0.0 -0.0 0.0 0.0 0.0 
1190.16524281 710.707 -1507.82608533 -4.33008969545 67.3711928733 2.861426602 1.00253 0.831888 0.110466 1.00216 0.823172 0.163181 1.00448 0.776211 0.318969 1.00527 0.816844 0.192371 -7.40347 17.7833 1.76603 -7.45998 31.9258 5.56344 -0.0 0.0 -0.0 5.02839 24.3897 9.61618 -17.0348 -21.7555 63.529 1.08629 -28.2846 0.273717 -59.0579 -5.16582 5.07088 0.00748833 6.73948 2.85909 -0.0 0.0 -0.0 12.376 6.16711 -25.0467 -9.20577 0.953829 -66.9984 0.235039 6.64128 -0.0136372 -44.6829 3.46239 -4.37634 -5.15445 -28.7114 16.8719 0.0 0.0 0.0 -14.9256 17.4913 2.25846 -27.7794 0.122694 4.21974 28.8337 -9.48283 -3.9079 -31.7479 0.0 0.0 -0.0 0.0 -0.0 22.4221 9.06778 -8.92871 -9.13254 -0.266925 -1.37466 3.66429 8.49487 0.554723 11.888 -0.0 -0.0 0.0 0.0 0.0 
1172.99804677 711.551 -1509.00271623 -6.87466612861 69.7261341148 5.57499087002 1.22181 0.566344 0.172979 1.22166 0.554189 0.208667 1.22369 0.504692 0.309766 1.22398 0.547279 0.22617 -7.40057 18.2643 2.80043 -7.44946 32.0988 6.68778 -0.0 0.0 -0.0 4.13977 25.235 8.38655 -17.0767 -18.7273 65.5588 0.982218 -25.9453 0.226275 -58.9561 -5.15322 5.0675 0.023284 6.31163 2.7861 -0.0 0.0 -0.0 12.3884 6.82024 -25.0966 -6.77395 0.149494 -68.0199 0.200006 5.65836 -0.00988403 -44.9924 3.49706 -4.39572 -4.9744 -28.8122 15.7754 0.0 0.0 0.0 -13.2637 15.6827 0.553839 -29.6345 0.0578925 4.49705 27.0907 -11.4769 -3.75021 -32.0721 0.0 0.0 -0.0 0.0 -0.0 20.5999 9.33544 -8.54831 -6.09406 -0.202511 -0.912895 2.97747 9.12179 0.453197 9.76371 -0.0 -0.0 0.0 0.0 0.0 
